<svg xmlns="http://www.w3.org/2000/svg" width="106.886" height="37" viewBox="0 0 106.886 37"><g transform="translate(-127 -14)"><g transform="translate(126.516 13.667)"><text transform="translate(89.484 34.333)" fill="#3a3a3a" font-size="11" font-family="FredokaOne-Regular, Fredoka One"><tspan x="0" y="0">.ke</tspan></text><path d="M16.709-19.652a5.035,5.035,0,0,1,3.964,1.821,6.533,6.533,0,0,1,1.583,4.44V-9.2a6.916,6.916,0,0,1-.036.821,1.945,1.945,0,0,1-.2.607q-.333.643-1.857.643-1.69,0-1.952-.881a3.878,3.878,0,0,1-.143-1.214v-4.19a2.034,2.034,0,0,0-.559-1.524,2.052,2.052,0,0,0-1.5-.548,2.084,2.084,0,0,0-1.524.571,2.006,2.006,0,0,0-.583,1.5V-9.2a6.916,6.916,0,0,1-.036.821,1.693,1.693,0,0,1-.226.607q-.31.643-1.833.643-1.5,0-1.833-.643a2.207,2.207,0,0,1-.2-.631,6.917,6.917,0,0,1-.036-.821v-8.428a6.643,6.643,0,0,1,.036-.8,1.693,1.693,0,0,1,.226-.607q.333-.6,1.833-.6,1.452,0,1.786.548a1.893,1.893,0,0,1,.238.976,2.424,2.424,0,0,1,.429-.476,4.176,4.176,0,0,1,.643-.5A3.119,3.119,0,0,1,16.709-19.652Zm14.333.024a5.283,5.283,0,0,1,3.893,1.881,6.172,6.172,0,0,1,1.774,4.369,6.153,6.153,0,0,1-1.762,4.357,5.175,5.175,0,0,1-3.786,1.869A3.372,3.372,0,0,1,28.28-8.3q-.19,1.167-2.048,1.167-1.5,0-1.833-.643a2.207,2.207,0,0,1-.2-.631,6.916,6.916,0,0,1-.036-.821V-23.438a6.916,6.916,0,0,1,.036-.821,1.945,1.945,0,0,1,.2-.607q.333-.643,1.857-.643,1.5,0,1.809.643a1.908,1.908,0,0,1,.226.631,6.916,6.916,0,0,1,.036.821v4.952A3.3,3.3,0,0,1,31.042-19.628Zm-2.083,7.69a1.894,1.894,0,0,0,1.464.643,2.005,2.005,0,0,0,1.5-.643,2.015,2.015,0,0,0,.619-1.429,2.143,2.143,0,0,0-.571-1.44,1.922,1.922,0,0,0-1.524-.655,1.871,1.871,0,0,0-1.512.667,2.2,2.2,0,0,0-.56,1.44A2.063,2.063,0,0,0,28.958-11.938Zm21.392-2.94a2.892,2.892,0,0,1-.726,2.167,2.265,2.265,0,0,1-1.607.7H42.375a1.305,1.305,0,0,0,.786,1.119,3.125,3.125,0,0,0,1.571.452,6.554,6.554,0,0,0,2.167-.286l.262-.1a2.4,2.4,0,0,1,.952-.262q.762,0,1.309,1.071a2.627,2.627,0,0,1,.31,1.1q0,2.119-5.071,2.119A7.652,7.652,0,0,1,41.529-7.4,5.318,5.318,0,0,1,39.4-9.01a6.846,6.846,0,0,1-1.5-4.309,6.226,6.226,0,0,1,1.94-4.8,6.856,6.856,0,0,1,4.845-1.8,5.411,5.411,0,0,1,4.857,2.333A4.84,4.84,0,0,1,50.351-14.878Zm-5.024.7q.9,0,.9-.762a1.072,1.072,0,0,0-.417-.881,1.865,1.865,0,0,0-1.19-.333,2.406,2.406,0,0,0-1.536.631,1.771,1.771,0,0,0-.762,1.345Zm13.619-1.262-1.548-.1v3.286a1.643,1.643,0,0,0,.2.929.876.876,0,0,0,.762.286,7.723,7.723,0,0,1,.857.036,1.691,1.691,0,0,1,.631.226q.548.31.548,1.6,0,1.5-.667,1.833a2.207,2.207,0,0,1-.631.2,6.643,6.643,0,0,1-.8.036,5.575,5.575,0,0,1-3.762-1.119,4.8,4.8,0,0,1-1.286-3.786v-3.524a6.268,6.268,0,0,1-.976.071,1.094,1.094,0,0,1-.869-.4,2.143,2.143,0,0,1-.345-1.381,5.993,5.993,0,0,1,.119-1.417,1.273,1.273,0,0,1,.333-.631,1.461,1.461,0,0,1,.952-.31l.786.1v-2.452a6.6,6.6,0,0,1,.036-.809,1.5,1.5,0,0,1,.226-.571q.31-.6,1.833-.6,1.619,0,1.929.881a4.451,4.451,0,0,1,.119,1.214v2.333q1.048-.1,1.583-.1a6.779,6.779,0,0,1,.809.036,1.907,1.907,0,0,1,.631.226q.619.31.619,1.833,0,1.5-.643,1.833a2.207,2.207,0,0,1-.631.2A6.916,6.916,0,0,1,58.945-15.438Zm3.5,7.214a.991.991,0,0,1-.452-.9,3.913,3.913,0,0,1,.9-1.881.932.932,0,0,1,.845-.4,3.474,3.474,0,0,1,1.583.583,3.669,3.669,0,0,0,1.809.583q1.452,0,1.452-.571,0-.452-1.6-.667A7.794,7.794,0,0,1,64.017-12.6a3.182,3.182,0,0,1-1.143-1.345,4.874,4.874,0,0,1-.452-2.178q0-3.762,5.166-3.762a8.39,8.39,0,0,1,3.476.809q.833.381.833.952a2.809,2.809,0,0,1-.524,1.4q-.524.833-1.071.833a3.223,3.223,0,0,1-1.059-.357,3.956,3.956,0,0,0-1.679-.357q-1.4,0-1.4.524,0,.714,1.619.929a8.86,8.86,0,0,1,3.048.9,2.7,2.7,0,0,1,1.155,1.155,4.14,4.14,0,0,1,.464,2.059,4.42,4.42,0,0,1-.464,2.107,3.013,3.013,0,0,1-1.3,1.3,8.746,8.746,0,0,1-3.821.738A8.175,8.175,0,0,1,62.445-8.224Z" transform="translate(34.924 30.237)" fill="#3a3a3a"/><text transform="translate(0.484 22.333)" fill="#ffe600" font-size="23" font-family="FredokaOne-Regular, Fredoka One"><tspan x="0" y="0">W</tspan><tspan y="0" fill="#3a3a3a">i</tspan><tspan y="0">n</tspan></text></g><rect width="3.607" height="3.607" rx="1.75" transform="translate(170.645 19.123)" fill="#ffe600"/></g></svg>