<svg xmlns="http://www.w3.org/2000/svg" width="11.942" height="11.414" viewBox="0 0 11.942 11.414"><g transform="translate(-0.5 -0.895)"><path d="M9.425,10.933a5.009,5.009,0,0,1-2.954,1.025C2.989,11.958,1,7.979,1,7.979A9.176,9.176,0,0,1,3.517,5.025m1.91-.905A4.536,4.536,0,0,1,6.471,4c3.482,0,5.471,3.979,5.471,3.979a9.2,9.2,0,0,1-1.074,1.587M7.525,9.033A1.492,1.492,0,1,1,5.417,6.925" transform="translate(0 -1.377)" fill="none" stroke="#3a3a3a" stroke-linecap="round" stroke-linejoin="round" stroke-width="1"/><line x2="10" y2="10" transform="translate(1.471 1.602)" stroke-width="1" stroke="#3a3a3a" stroke-linecap="round" stroke-linejoin="round" fill="none"/></g></svg>