<svg xmlns="http://www.w3.org/2000/svg" width="30.033" height="23" viewBox="0 0 30.033 23"><g transform="translate(0)"><rect width="22" height="23" transform="translate(4.055 0)" fill="#eceff1"/><path d="M256,157.337l11.262,8.894V148.672Z" transform="translate(-240.983 -143.43)" fill="#cfd8dc"/><path d="M27.218,64h-.939L15.017,72.894,3.754,64H2.816A2.817,2.817,0,0,0,0,66.816V83.709a2.817,2.817,0,0,0,2.816,2.816h.939V68.967l11.262,8.663,11.262-8.665v17.56h.939a2.817,2.817,0,0,0,2.816-2.816V66.816A2.817,2.817,0,0,0,27.218,64Z" transform="translate(0 -63.725)" fill="#f44336"/></g></svg>