<svg xmlns="http://www.w3.org/2000/svg" width="30.033" height="30.033" viewBox="0 0 30.033 30.033"><g transform="translate(0)"><path d="M30.033,15.017A15.017,15.017,0,1,1,15.017,0,15.016,15.016,0,0,1,30.033,15.017Zm0,0" transform="translate(0)" fill="#4a7aff"/><path d="M30.033,15.017A15.017,15.017,0,1,1,15.017,0,15.016,15.016,0,0,1,30.033,15.017Zm0,0" transform="translate(0)" fill="#4a7aff"/><path d="M108.8,129.037a15.11,15.11,0,0,0-.24-2.685l-5.227-5.227-7.944,8.194-9.872.069,3.4,3.4-1.559.019,2.364,2.364-1.009,1.04-5.036-.82,8.588,8.588a15.213,15.213,0,0,0,1.52.076A15.017,15.017,0,0,0,108.8,129.037Zm0,0" transform="translate(-78.767 -114.02)" fill="#0053bf"/><path d="M90.038,132.383a11.721,11.721,0,0,0,11.8-11.8q0-.269-.012-.536A8.446,8.446,0,0,0,103.9,117.9a8.273,8.273,0,0,1-2.382.653,4.162,4.162,0,0,0,1.824-2.294,8.317,8.317,0,0,1-2.634,1.007,4.152,4.152,0,0,0-7.069,3.783,11.777,11.777,0,0,1-8.549-4.334,4.151,4.151,0,0,0,1.284,5.537,4.116,4.116,0,0,1-1.878-.519c0,.017,0,.035,0,.053a4.149,4.149,0,0,0,3.328,4.066,4.143,4.143,0,0,1-1.873.071,4.153,4.153,0,0,0,3.875,2.881,8.387,8.387,0,0,1-6.141,1.718,11.742,11.742,0,0,0,6.358,1.863" transform="translate(-78.771 -109.151)" fill="#fff"/><path d="M265.773,117.9a8.28,8.28,0,0,1-2.382.653,4.162,4.162,0,0,0,1.824-2.294,8.311,8.311,0,0,1-2.634,1.007,4.151,4.151,0,0,0-6.938,1.451v13.112a11.875,11.875,0,0,0,8.072-11.244q0-.269-.012-.536a8.446,8.446,0,0,0,2.069-2.148Zm0,0" transform="translate(-240.648 -109.151)" fill="#dce1eb"/></g></svg>