<svg xmlns="http://www.w3.org/2000/svg" width="30.033" height="30.033" viewBox="0 0 30.033 30.033"><g transform="translate(0)"><path d="M15.017,0A15,15,0,0,0,2.129,22.707L0,30.033,7.326,27.9A15.013,15.013,0,1,0,15.017,0Zm0,0" transform="translate(0)" fill="#00dd7b"/><path d="M271.017,15.017A15.068,15.068,0,0,1,256,30.033V0A15.068,15.068,0,0,1,271.017,15.017Zm0,0" transform="translate(-240.983)" fill="#00cc71"/><path d="M138.429,107.1l-.7.686c-.986.986-3.273.915-4.734.634a12.263,12.263,0,0,1-4.018-1.637c-3.59-2.182-6.845-6.054-7.637-9.538-.546-2.358-.246-4.4.528-5.191l.7-.7a1.01,1.01,0,0,1,1.39,0l2.8,2.8a.977.977,0,0,1,0,1.408l-.7.686a2.008,2.008,0,0,0,0,2.8l2.921,2.869,1.707,1.689a2.047,2.047,0,0,0,2.857,0l.686-.7a1.071,1.071,0,0,1,1.408,0l2.8,2.8a1.015,1.015,0,0,1,0,1.408Zm0,0" transform="translate(-113.956 -85.733)" fill="#ececf1"/><path d="M265.456,280.992l-.7.686c-.986.986-3.273.915-4.734.634A12.262,12.262,0,0,1,256,280.675V275.8l1.707,1.689a2.047,2.047,0,0,0,2.857,0l.686-.7a1.071,1.071,0,0,1,1.408,0l2.8,2.8A1.015,1.015,0,0,1,265.456,280.992Zm0,0" transform="translate(-240.983 -259.623)" fill="#e2e2e7"/></g></svg>